<?xml version="1.0" ?><svg enable-background="new 0 0 512 512" id="Layer_1" version="1.1" viewBox="0 0 512 512" xml:space="preserve" xmlns="http://www.w3.org/2000/svg" xmlns:xlink="http://www.w3.org/1999/xlink"><g><g><linearGradient gradientUnits="userSpaceOnUse" id="SVGID_1_" x1="-0.0000027" x2="512" y1="256" y2="256"><stop offset="0" style="stop-color:#00AEEE"/><stop offset="1" style="stop-color:#0095DA"/></linearGradient><circle cx="256" cy="256" fill="url(#SVGID_1_)" r="256"/><linearGradient gradientUnits="userSpaceOnUse" id="SVGID_2_" x1="42.6666641" x2="469.3333435" y1="256.0005188" y2="256.0005188"><stop offset="0" style="stop-color:#0095DA"/><stop offset="1" style="stop-color:#00AEEE"/></linearGradient><path d="M256,469.3338623c-117.6314697,0-213.3333435-95.7023926-213.3333435-213.3333435    c0-117.6314545,95.7018661-213.333313,213.3333435-213.333313c117.6357422,0,213.3333435,95.7018661,213.3333435,213.333313    C469.3333435,373.6314697,373.6357422,469.3338623,256,469.3338623z" fill="url(#SVGID_2_)"/></g><g><path d="M309.589325,155.4207916c-28.5621338,32.9173431-35.5466614,75.0912018-17.7402649,107.3930817    c0.5589294,1.0144043,1.1824036,1.9823914,1.7829285,2.9647827    c29.8314819-16.7658539,54.5493469-38.2671967,70.9792175-62.0853271c0.060791-0.0869293,0.8266602-1.1808014,1.6581421-2.3685303    c-13.2928162-21.7631989-32.7664185-38.06987-55.0960083-47.6213379    C310.3712158,154.5711975,309.7103882,155.2879944,309.589325,155.4207916z" opacity="0.3"/><path d="M373.788269,215.6528015c-0.6858826-1.5599976-1.4197388-3.0821381-2.163208-4.5973358    c-17.0805359,24.1264038-42.1493225,45.8826752-72.2207947,62.9354706    c16.5653381,20.5696106,43.3546753,32.5349426,74.2463989,32.5349426c0.0634766,0,0.1269226,0,0.1930542,0h2.2997437    C386.9109497,278.1253357,386.9893494,245.6501312,373.788269,215.6528015z" opacity="0.3"/><path d="M154.0506592,223.0613403c17.4208069,16.6053314,32.3338776,38.1903992,42.8917389,62.1871948    c1.7221375,3.9119873,3.2826691,7.8591919,4.7472076,11.8240051c11.0751953-1.4783936,22.3333282-3.8122864,33.659729-7.0368042    c-2.0293274-4.071991-4.0005341-8.197876-5.858139-12.4186707c-17.8170624-40.4890594-25.3093262-83.0592041-21.118927-119.904007    c-26.6544037,13.9258728-46.1157379,36.7109375-56.2928009,63.1002808    C153.0485382,221.9216003,153.8874664,222.881073,154.0506592,223.0613403z" opacity="0.3"/><path d="M218.3199921,158.6869354c-4.0346527,35.1488037,3.1834717,75.9557343,20.3253479,114.9072113    c2.0181274,4.5845337,4.1594543,9.0639954,6.3829193,13.4607849c8.3429413-2.73172,16.6853333-5.8048096,24.9573364-9.4469299    c5.0592041-2.2287903,10.0112-4.5898743,14.8448181-7.0725403c-0.5813599-0.965332-1.1941528-1.9066467-1.7402954-2.897583    c-19.6490479-35.6442719-12.5039978-81.692276,18.088562-117.7072144    c-25.9930725-8.4864044-54.9488068-8.1461334-82.1040192,2.8415985    C218.6959991,155.7077332,218.363205,158.3023987,218.3199921,158.6869354z" opacity="0.3"/><path d="M290.4650574,278.8597412c-5.3525085,2.7807922-10.834137,5.42453-16.4517212,7.8970642    c-8.0218811,3.5328064-16.1136169,6.6367798-24.2165375,9.3455811    c17.3322601,31.2538757,39.7978668,56.8746948,64.7333221,73.4944153l1.5498657,0.9567871    c0.5226746,0.3210754,1.0218811,0.6298828,1.3706665,0.8458862c24.5392151-12.1946716,43.1717529-31.8272095,54.3920288-54.925354    C337.9200134,315.9989319,308.5007935,302.2463989,290.4650574,278.8597412z" opacity="0.3"/><path d="M240.06987,299.105072c-11.7685394,3.447998-23.4986725,5.9930725-35.0512085,7.638916    c6.6528015,21.184021,9.6389313,42.776001,8.6778717,63.4629517l-0.0789337,2.6511841    c28.3829346,13.1274719,61.726944,15.1829529,92.8992157,3.3333435    C280.7712097,358.330658,257.7370605,331.5237427,240.06987,299.105072z" opacity="0.3"/><path d="M191.4538727,298.2421265c-1.151474-3.0021362-2.3557434-5.9946594-3.6634674-8.9658508    c-9.7130737-22.0730896-23.293335-41.9301453-39.3098755-57.6400146    c-5.8741302,20.9365387-6.0858612,43.5605469,0.2384033,65.4805298c0.8063965,0.1034851,1.5365295,0.1973572,2.0266724,0.2597351    l0.8005219,0.1072083C164.2010651,299.2341309,177.6325378,299.412262,191.4538727,298.2421265z" opacity="0.3"/><path d="M194.8896027,307.9674683c-6.7872009,0.6581421-13.5098724,1.0682678-20.0885315,1.0682678    c-7.7098694,0-15.223999-0.5125427-22.5418701-1.4373474c0.6186676,1.5834656,1.2506714,3.1637573,1.941864,4.7354736    c10.6426697,24.1834717,28.3088074,43.0783997,49.5354614,55.3914795    C204.387207,348.2336121,201.3679962,327.9168091,194.8896027,307.9674683z" opacity="0.3"/></g><g><path d="M301.589325,147.4207916c-28.5621338,32.9173431-35.5466614,75.0912018-17.7402649,107.3930817    c0.5589294,1.014389,1.1824036,1.9823914,1.7829285,2.9647827c29.8314819-16.7658539,54.5493469-38.2671967,70.9792175-62.0853271    c0.060791-0.0869293,0.8266602-1.1808014,1.6581421-2.3685303c-13.2928162-21.7631989-32.7664185-38.06987-55.0960083-47.6213379    C302.3711853,146.5711975,301.7103882,147.2879944,301.589325,147.4207916z" fill="#FFFFFF"/><path d="M365.788269,207.6528015c-0.6858826-1.5599976-1.4197388-3.0821381-2.163208-4.5973358    c-17.0805359,24.1264038-42.1493225,45.8826752-72.2207947,62.9354706    c16.5653381,20.5696106,43.3546753,32.5349426,74.2463989,32.5349426c0.0634766,0,0.1269226,0,0.1930542,0h2.2997437    C378.9109497,270.1253357,378.9893494,237.6501312,365.788269,207.6528015z" fill="#FFFFFF"/><path d="M146.0506592,215.0613403c17.4208069,16.6053314,32.3338776,38.1903992,42.8917389,62.1871948    c1.7221375,3.9119873,3.2826691,7.8591919,4.7472076,11.8240051c11.0751953-1.4783936,22.3333282-3.8122864,33.659729-7.0368042    c-2.0293427-4.071991-4.0005341-8.197876-5.858139-12.4186707c-17.8170624-40.4890594-25.3093262-83.0592041-21.118927-119.904007    c-26.6544037,13.9258728-46.1157379,36.7109375-56.2928009,63.1002808    C145.0485382,213.9216003,145.8874664,214.881073,146.0506592,215.0613403z" fill="#FFFFFF"/><path d="M210.3199921,150.6869354c-4.0346527,35.1488037,3.1834717,75.9557343,20.3253479,114.9072113    c2.0181274,4.5845337,4.1594543,9.0639954,6.3829193,13.4607849c8.3429413-2.73172,16.6853333-5.8048096,24.9573364-9.4469299    c5.0592041-2.2287903,10.0112-4.5898743,14.8448181-7.0725403c-0.5813599-0.965332-1.1941528-1.9066467-1.7402954-2.897583    c-19.6490479-35.6442719-12.5039978-81.692276,18.088562-117.7072144    c-25.9930725-8.4864044-54.9488068-8.1461334-82.1040192,2.8415985    C210.6959991,147.7077332,210.363205,150.3023987,210.3199921,150.6869354z" fill="#FFFFFF"/><path d="M282.4650574,270.8597412c-5.3525391,2.7807922-10.834137,5.42453-16.4517212,7.8970642    c-8.0218811,3.5328064-16.1136017,6.6367798-24.2165375,9.3455811    c17.3322601,31.2538757,39.7978668,56.8746948,64.7333221,73.4944153l1.5498657,0.9567871    c0.5226746,0.3210754,1.0218811,0.6298828,1.3706665,0.8458862c24.5392151-12.1946716,43.1717529-31.8272095,54.3920288-54.925354    C329.9200134,307.9989319,300.5007935,294.2463989,282.4650574,270.8597412z" fill="#FFFFFF"/><path d="M232.06987,291.105072c-11.7685394,3.447998-23.4986725,5.9930725-35.0512085,7.638916    c6.6528015,21.184021,9.6389313,42.776001,8.6778717,63.4629517l-0.0789337,2.6511841    c28.3829346,13.1274719,61.726944,15.1829529,92.8992157,3.3333435    C272.7712097,350.330658,249.7370605,323.5237427,232.06987,291.105072z" fill="#FFFFFF"/><path d="M183.4538727,290.2421265c-1.151474-3.0021362-2.3557434-5.9946594-3.6634674-8.9658508    c-9.7130737-22.0730896-23.293335-41.9301453-39.3098755-57.6400146    c-5.8741302,20.9365387-6.0858612,43.5605469,0.2384033,65.4805298c0.8063965,0.1034851,1.5365295,0.1973572,2.0266724,0.2597351    l0.8005219,0.1072083C156.2010651,291.2341309,169.6325378,291.412262,183.4538727,290.2421265z" fill="#FFFFFF"/><path d="M186.8896027,299.9674683c-6.7872009,0.6581421-13.5098724,1.0682678-20.0885315,1.0682678    c-7.7098694,0-15.223999-0.5125427-22.5418701-1.4373474c0.6186676,1.5834656,1.2506714,3.1637573,1.941864,4.7354736    c10.6426697,24.1834717,28.3088074,43.0783997,49.5354614,55.3914795    C196.3871918,340.2336121,193.3679962,319.9168091,186.8896027,299.9674683z" fill="#FFFFFF"/></g></g></svg>