<?xml version="1.0" ?><svg enable-background="new 0 0 512 512" id="Layer_1" version="1.1" viewBox="0 0 512 512" xml:space="preserve" xmlns="http://www.w3.org/2000/svg" xmlns:xlink="http://www.w3.org/1999/xlink"><g><g><linearGradient gradientUnits="userSpaceOnUse" id="SVGID_1_" x1="0.0000038" x2="512" y1="256" y2="256"><stop offset="0" style="stop-color:#A364AB"/><stop offset="1" style="stop-color:#8C3D96"/></linearGradient><circle cx="256" cy="256" fill="url(#SVGID_1_)" r="256"/><linearGradient gradientUnits="userSpaceOnUse" id="SVGID_2_" x1="42.6666679" x2="469.3333435" y1="256.0005188" y2="256.0005188"><stop offset="0" style="stop-color:#8C3D96"/><stop offset="1" style="stop-color:#A364AB"/></linearGradient><path d="M256,469.3338623c-117.6314697,0-213.3333282-95.7023926-213.3333282-213.3333435    c0-117.6314545,95.7018585-213.333313,213.3333282-213.333313c117.636261,0,213.3333435,95.7018661,213.3333435,213.333313    C469.3333435,373.6314697,373.636261,469.3338623,256,469.3338623z" fill="url(#SVGID_2_)"/></g><g><path d="M341.4346619,144H186.5653381c-15.3817444,0-27.8517303,12.4698639-27.8517303,27.8522644v133.7536011    c6.4842529-6.7285461,15.5653229-10.9370728,25.6255951-10.9370728h159.3237305    c10.0597229,0,19.13974,4.2085266,25.6239929,10.9349365V171.8522644C369.2869263,156.4698639,356.8175964,144,341.4346619,144z     M264.0005188,236.8032074c-16.0901184,0-29.133316-13.044281-29.133316-29.1333466    c0-16.0895996,13.0431976-29.1322632,29.133316-29.1322632c16.0897217,0,29.1322937,13.0426636,29.1322937,29.1322632    C293.1328125,223.7589264,280.0902405,236.8032074,264.0005188,236.8032074z" opacity="0.3"/><path d="M343.6618652,304.669342H184.3386688c-14.15242,0-25.625061,11.4725342-25.625061,25.625061v28.0799866    c0,14.1530762,11.472641,25.6250916,25.625061,25.6250916h159.3231964c14.1525269,0,25.625061-11.4720154,25.625061-25.6250916    v-28.0799866C369.2869263,316.1418762,357.8143921,304.669342,343.6618652,304.669342z M198.9050751,359.6245422h-10v-31.8506775    h10V359.6245422z M229.1413269,359.6245422h-10v-31.8506775h10V359.6245422z" opacity="0.3"/></g><g><path d="M333.4346619,136H178.5653381c-15.3817444,0-27.8517303,12.4698639-27.8517303,27.8522644v133.7536011    c6.4842529-6.7285461,15.5653229-10.9370728,25.6255951-10.9370728h159.3237305    c10.0597229,0,19.13974,4.2085266,25.6239929,10.9349365V163.8522644C361.2869263,148.4698639,348.8175964,136,333.4346619,136z     M256.0005188,228.8031921c-16.0901184,0-29.133316-13.0442657-29.133316-29.1333313    c0-16.0895996,13.0431976-29.1322632,29.133316-29.1322632c16.0897217,0,29.1322937,13.0426636,29.1322937,29.1322632    C285.1328125,215.7589264,272.0902405,228.8031921,256.0005188,228.8031921z" fill="#FFFFFF"/><path d="M335.6618652,296.669342H176.3386688c-14.15242,0-25.625061,11.4725342-25.625061,25.625061v28.0799866    c0,14.1530762,11.472641,25.6250916,25.625061,25.6250916h159.3231964c14.1525269,0,25.625061-11.4720154,25.625061-25.6250916    v-28.0799866C361.2869263,308.1418762,349.8143921,296.669342,335.6618652,296.669342z M190.9050751,351.6245422h-10v-31.8506775    h10V351.6245422z M221.1413269,351.6245422h-10v-31.8506775h10V351.6245422z" fill="#FFFFFF"/></g></g></svg>