<?xml version="1.0" ?><svg enable-background="new 0 0 512 512" id="Layer_1" version="1.1" viewBox="0 0 512 512" xml:space="preserve" xmlns="http://www.w3.org/2000/svg" xmlns:xlink="http://www.w3.org/1999/xlink"><g><g><linearGradient gradientUnits="userSpaceOnUse" id="SVGID_1_" x1="0.0000038" x2="512" y1="256" y2="256"><stop offset="0" style="stop-color:#E24263"/><stop offset="1" style="stop-color:#DD1E47"/></linearGradient><circle cx="256" cy="256" fill="url(#SVGID_1_)" r="256"/><linearGradient gradientUnits="userSpaceOnUse" id="SVGID_2_" x1="42.6666679" x2="469.3333435" y1="256.0005188" y2="256.0005188"><stop offset="0" style="stop-color:#DD1E47"/><stop offset="1" style="stop-color:#E24263"/></linearGradient><path d="M256,469.3338623c-117.6309357,0-213.3333282-95.7018738-213.3333282-213.3333435    c0-117.6309204,95.7023926-213.333313,213.3333282-213.333313c117.636261,0,213.3333435,95.7024002,213.3333435,213.333313    C469.3333435,373.6319885,373.636261,469.3338623,256,469.3338623z" fill="url(#SVGID_2_)"/></g><g><polygon opacity="0.3" points="319,384 329,384 329,329 384,329 384,319 319,319   "/><polygon opacity="0.3" points="329,199 329,144.0005341 319,144.0005341 319,209 384,209 384,199   "/><polygon opacity="0.3" points="199,199 144.0005341,199 144.0005341,209 209,209 209,144.0005341 199,144.0005341   "/><polygon opacity="0.3" points="144.0005341,329 199,329 199,384 209,384 209,319 144.0005341,319   "/></g><g><polygon fill="#FFFFFF" points="311,376 321,376 321,321 376,321 376,311 311,311   "/><polygon fill="#FFFFFF" points="321,191 321,136.0005341 311,136.0005341 311,201 376,201 376,191   "/><polygon fill="#FFFFFF" points="191,191 136.0005341,191 136.0005341,201 201,201 201,136.0005341 191,136.0005341   "/><polygon fill="#FFFFFF" points="136.0005341,321 191,321 191,376 201,376 201,311 136.0005341,311   "/></g></g></svg>